<?xml version="1.0" encoding="UTF-8" standalone="no"?>
<!DOCTYPE svg PUBLIC "-//W3C//DTD SVG 1.1//EN" "http://www.w3.org/Graphics/SVG/1.1/DTD/svg11.dtd">
<svg width="100%" height="100%" viewBox="0 0 512 512" version="1.1" xmlns="http://www.w3.org/2000/svg" xmlns:xlink="http://www.w3.org/1999/xlink" xml:space="preserve" xmlns:serif="http://www.serif.com/" style="fill-rule:evenodd;clip-rule:evenodd;stroke-linejoin:round;stroke-miterlimit:2;">
    <g transform="matrix(1.01696,0,0,1.01696,-4.36085,-4.34694)">
        <g transform="matrix(0.905122,0,0,0.905122,24.2918,24.2744)">
            <path d="M-17.854,468.621C29.025,369.181 100.005,201.768 125.791,170.217C154.53,135.053 197.87,113.904 244.6,113.904C268.645,113.904 291.395,119.425 311.653,129.271C302.73,114.37 297.904,97.251 297.904,72C297.904,36.077 318.641,5.258 329.658,-8.065C337.219,-17.228 348.315,-22.096 360,-22.096C371.833,-22.096 383.03,-17.084 390.462,-7.794L390.469,-7.785C401.258,5.73 422.096,37.675 422.096,80C422.096,83.606 422.004,86.99 421.834,90.166C425.01,89.996 428.394,89.904 432,89.904C474.325,89.904 506.27,110.742 519.794,121.538L519.804,121.546C529.084,128.97 534.096,140.167 534.096,152C534.096,163.685 529.228,174.781 520.065,182.342C506.742,193.359 475.923,214.096 440,214.096C414.776,214.096 397.666,209.281 382.776,200.375C392.625,220.619 398.163,243.354 398.196,267.385L398.196,267.4C398.196,327.21 363.392,381.533 309.187,406.65L206.74,454.091L206.799,454.149L43.332,529.875L43.276,529.901C25.61,537.966 4.901,534.341 -8.733,520.515C-22.322,506.735 -25.901,486.056 -17.854,468.621Z" style="fill:rgb(135,184,23);"/>
        </g>
        <g transform="matrix(0.905122,0,0,0.905122,24.2918,24.2744)">
            <path d="M346.7,6C337.6,17 320,42.3 320,72C320,112 335.3,127.3 360,152C384.7,176.7 400,192 440,192C469.7,192 495,174.4 506,165.3C510,162 512,157.1 512,152C512,146.9 510,142 506,138.8C494.6,129.7 467.7,112 432,112C400,112 392,120 392,120C392,120 400,112 400,80C400,44.3 382.3,17.4 373.2,6C370,2 365.1,0 360,0C354.9,0 350,2 346.7,6Z" style="fill:rgb(53,132,221);fill-rule:nonzero;"/>
        </g>
        <g transform="matrix(0.905122,0,0,0.905122,24.2918,24.2744)">
            <path d="M244.6,136C204.6,136 167.5,154.1 142.9,184.2L125.5,212L125.5,212.1L2.2,477.9C-2,487 -0.1,497.8 7,505C14.1,512.2 24.9,514 34.1,509.8L168.8,447.4L199.7,433L299.9,386.6C346.3,365.1 376.1,318.6 376.1,267.4C376,194.8 317.2,136 244.6,136Z" style="fill:rgb(244,175,6);fill-rule:nonzero;"/>
        </g>
        <g transform="matrix(0.905122,0,0,0.905122,24.2918,24.2744)">
            <path d="M244.6,136C204.6,136 167.5,154.1 142.9,184.2L203.4,244.7C209.6,250.9 209.6,261.1 203.4,267.3C197.2,273.5 187,273.5 180.8,267.3L125.5,212L125.5,212.1L2.2,477.9C-2,487 -0.1,497.8 7,505C14.1,512.2 24.9,514 34.1,509.8L168.8,447.4L116.7,395.3C110.5,389.1 110.5,378.9 116.7,372.7C122.9,366.5 133.1,366.5 139.3,372.7L199.7,433L299.9,386.6C346.3,365.1 376.1,318.6 376.1,267.4C376,194.8 317.2,136 244.6,136Z" style="fill:rgb(229,49,56);fill-rule:nonzero;"/>
        </g>
    </g>
</svg>
